# xmcd CD database file
#
# Track frame offsets:
#	150
#	22632
#	41947
#	59227
#	75115
#	94187
#	107272
#	131062
#
# Disc length: 1958 seconds
#
# Revision: 0
# Processed by: cddbd v1.5.1PL0 Copyright (c) Steve Scherf et al.
# Submitted via: CDex 1.51
#
DISCID=5b07a408
DTITLE=PE'Z - スズ虫
DYEAR=1900
DGENRE=Jazz
TTITLE0=燕返し 〜我ココニ侍フ〜
TTITLE1=SAMBA DE 恋して
TTITLE2=wonderful saturday
TTITLE3=ﾊﾟﾊﾟのﾏｰﾁ
TTITLE4=TASOGARE
TTITLE5=青と緑 〜8月のある朝〜
TTITLE6=Where will we play next？
TTITLE7=情熱の行方
EXTD=
EXTT0=
EXTT1=
EXTT2=
EXTT3=
EXTT4=
EXTT5=
EXTT6=
EXTT7=
PLAYORDER=
